PathFileType	4	(X/Y/Z)	D:\																																																																			
DataRate	CameraRate	NumFrames	NumMarkers	Units	OrigDataRate	OrigDataStartFrame	OrigNumFrames																																																															
240	240	11	21	mm	240	521	833																																																															
Frame#	Time	Top.Head			Front.Head			Rear.Head			R.Shoulder			R.Elbow			R.Wrist			L.Shoulder			L.Elbow			L.Wrist			Offset1			R.ASIS			L.ASIS			V.Sacral			R.Knee			R.Ankle			R.Toe			R.Heel			L.Knee			L.Ankle			L.Toe			L.Heel			V_Head			V_Pelvis		
		X1	Y1	Z1	X2	Y2	Z2	X3	Y3	Z3	X4	Y4	Z4	X5	Y5	Z5	X6	Y6	Z6	X7	Y7	Z7	X8	Y8	Z8	X9	Y9	Z9	X10	Y10	Z10	X11	Y11	Z11	X12	Y12	Z12	X13	Y13	Z13	X14	Y14	Z14	X15	Y15	Z15	X16	Y16	Z16	X17	Y17	Z17	X18	Y18	Z18	X19	Y19	Z19	X20	Y20	Z20	X21	Y21	Z21	X22	Y22	Z22	X23	Y23	Z23
																																																																						
521	2.167	474.33496	-41.04495	2124.05469	463.66113	74.77066	2089.23047	474.22455	-111.9632	2058.62012	649.28241	-26.1292	1802.67896	640.47717	89.18407	1502.13123	444.90253	155.15912	1661.58557	293.09744	-38.36807	1834.77222	248.33047	90.76924	1528.93872	461.60782	106.85359	1669.80884	568.53192	-165.04192	1668.40222	613.74524	-83.24194	1300.71387	266.66504	-44.29211	1292.44995	443.75702	-199.05367	1328.47583	652.22797	-89.6432	831.2644	635.96039	-152.82556	474.11435	602.64844	-12.1683	293.22565	577.67792	-229.17563	473.16306	236.00502	-32.8821	866.63287	236.43219	-122.05016	478.1626	241.5199	10.02534	306.24866	302.05652	-193.05074	475.5853	468.94284	-18.59624	2073.92529	432.24387	-131.32535	1312.53467
522	2.171	474.5108	-41.17081	2120.40479	463.88663	74.70294	2085.7417	474.28857	-112.03188	2054.89136	649.25287	-26.08009	1799.20068	640.59399	89.14204	1498.63696	445.13608	155.43024	1658.1416	292.99261	-37.73679	1831.0979	248.52318	91.13635	1525.10193	461.74329	107.13905	1666.3656	568.2312	-164.64905	1664.81653	613.88239	-83.25977	1297.12183	266.78809	-43.93356	1288.84399	443.71503	-198.85167	1324.87036	652.74457	-89.42783	827.6272	636.74976	-151.27596	470.23953	603.71582	-9.90955	289.86572	578.33954	-227.5137	468.96283	235.7923	-32.4704	863.08765	235.73445	-121.26111	474.50217	240.83405	11.00377	302.73917	301.32529	-192.30765	471.76932	469.08759	-18.66446	2070.31665	432.30005	-131.15723	1308.93872
523	2.175	474.67563	-41.30507	2116.57813	464.12152	74.63687	2082.09399	474.34485	-112.10185	2050.98608	649.22064	-26.01877	1795.56616	640.72961	89.07214	1494.95874	445.37866	155.70807	1654.48291	292.88599	-37.11032	1827.24707	248.69766	91.5135	1521.09473	461.8605	107.40285	1662.73145	567.95355	-164.26678	1661.07007	613.99146	-83.30708	1293.35095	266.89737	-43.50195	1285.09534	443.62033	-198.64467	1321.10718	653.27771	-89.2628	823.8363	637.55652	-149.71033	466.20529	604.9187	-7.57484	286.36755	578.97095	-225.78964	464.58136	235.59444	-32.11479	859.39069	234.98267	-120.40923	470.64694	240.11435	12.12081	299.0867	300.53113	-191.51498	467.73749	469.23318	-18.73247	2066.54028	432.31702	-130.96431	1305.1825
524	2.179	474.82578	-41.44693	2112.57471	464.36526	74.57697	2078.28711	474.39542	-112.17104	2046.90369	649.18506	-25.94936	1791.77441	640.88452	88.97894	1491.09937	445.62943	155.98709	1650.61157	292.78052	-36.48637	1823.22314	248.85799	91.90202	1516.92029	461.95694	107.64516	1658.90405	567.70685	-163.91718	1657.16919	614.07556	-83.38009	1289.40039	266.99081	-42.99742	1281.19604	443.47708	-198.43176	1317.18091	653.82281	-89.14473	819.8938	638.38104	-148.1312	462.01108	606.25946	-5.15608	282.74283	579.5694	-224.00793	460.01636	235.40842	-31.81194	855.53357	234.18117	-119.50264	466.59738	239.34233	13.37007	295.29602	299.68372	-190.67564	463.48755	469.38034	-18.79703	2062.59546	432.29572	-130.74597	1301.26123
525	2.183	474.96164	-41.59406	2108.39673	464.61435	74.52673	2074.31787	474.44113	-112.23792	2042.64331	649.14526	-25.87451	1787.82031	641.05908	88.8661	1487.06177	445.88855	156.26627	1646.53027	292.67813	-35.86909	1819.02686	249.00916	92.30096	1512.58313	462.03613	107.87505	1654.88269	567.49213	-163.61012	1653.11646	614.13788	-83.47096	1285.26855	267.06863	-42.42441	1277.13818	443.29541	-198.21022	1313.08716	654.37427	-89.07123	815.80151	639.22699	-146.53964	457.6564	607.73743	-2.65084	279.00015	580.13159	-222.17464	455.26431	235.23256	-31.55649	851.50598	233.33615	-118.54961	462.35828	238.50177	14.74145	291.37186	298.79166	-189.7928	459.01871	469.52774	-18.85558	2058.48071	432.23996	-130.50104	1297.17017
526	2.188	475.08588	-41.74394	2104.04736	464.86182	74.48615	2070.18115	474.48236	-112.30083	2038.20337	649.10101	-25.79422	1783.69934	641.25293	88.73505	1482.84778	446.15808	156.54704	1642.24097	292.5799	-35.26448	1814.65759	249.1554	92.70735	1508.0863	462.10339	108.10136	1650.66919	567.30615	-163.34375	1648.91113	614.18237	-83.57155	1280.95386	267.13397	-41.79196	1272.91296	443.08749	-197.97572	1308.82202	654.92657	-89.04265	811.56006	640.09924	-144.93607	453.14206	609.34869	-0.06233	275.14502	580.65662	-220.29669	450.32193	235.06648	-31.3432	847.29669	232.45441	-117.5589	457.93777	237.57883	16.2224	287.31735	297.86246	-188.86899	454.3324	469.67209	-18.90735	2054.19238	432.15631	-130.22995	1292.90503
527	2.192	475.20056	-41.89653	2099.52759	465.10074	74.45169	2065.87207	474.51953	-112.35779	2033.5835	649.05164	-25.70753	1779.40894	641.46564	88.58487	1478.45776	446.44107	156.83176	1637.74463	292.48669	-34.67604	1810.11597	249.29935	93.11806	1503.43201	462.16342	108.32762	1646.2666	567.1438	-163.10941	1644.55054	614.21387	-83.67477	1276.45874	267.19186	-41.11334	1268.51001	442.86346	-197.72217	1304.38013	655.47516	-89.06168	807.1676	641.00006	-143.32285	448.47018	611.08667	2.60133	271.17825	581.14862	-218.38098	445.18762	234.90959	-31.16774	842.89697	231.54314	-116.5399	453.34576	236.56223	17.79781	283.13339	296.90347	-187.90762	449.43372	469.81015	-18.95303	2049.72803	432.05307	-129.93573	1288.46191
528	2.196	475.30795	-42.05235	2094.83521	465.32965	74.42131	2061.38794	474.55276	-112.40695	2028.78479	648.99652	-25.61557	1774.948	641.6972	88.41463	1473.89172	446.73917	157.12369	1633.04297	292.3985	-34.10579	1805.40503	249.44193	93.53185	1498.62256	462.22198	108.55528	1641.67627	566.99866	-162.89685	1640.03149	614.2373	-83.77556	1271.7887	267.24768	-40.40254	1263.91956	442.6304	-197.44405	1299.75757	656.01587	-89.13086	802.62073	641.92621	-141.7057	443.64264	612.94281	5.32631	267.09561	581.61768	-216.43597	439.86111	234.76036	-31.02617	838.30444	230.60951	-115.50348	448.59171	235.44341	19.45132	278.82059	295.92282	-186.91356	444.33063	469.94122	-18.99284	2045.08643	431.93842	-129.62282	1283.83813
529	2.2	475.41196	-42.20952	2089.96777	465.55209	74.39467	2056.72803	474.58142	-112.44644	2023.80933	648.93524	-25.52113	1770.31616	641.94727	88.22531	1469.14856	447.05029	157.42561	1628.13794	292.31421	-33.55547	1800.5282	249.58195	93.94962	1493.66016	462.28671	108.78745	1636.89917	566.86304	-162.69733	1635.35156	614.25745	-83.87205	1266.94983	267.30661	-39.6711	1259.13562	442.39417	-197.1407	1294.95386	656.54565	-89.2513	797.91577	642.87079	-140.09119	438.66037	614.9071	8.09397	262.89075	582.08026	-214.47446	434.34186	234.617	-30.91469	833.52283	229.65871	-114.46228	443.68329	234.21678	21.16706	274.38104	294.92917	-185.89262	439.03052	470.06677	-19.02591	2040.26868	431.8194	-129.29599	1279.03406
530	2.204	475.51675	-42.36336	2084.92651	465.77066	74.36719	2051.89355	474.60443	-112.47488	2018.65906	648.86731	-25.42461	1765.51294	642.21552	88.01845	1464.22729	447.37033	157.7381	1623.03174	292.23257	-33.02397	1795.48767	249.71622	94.37225	1488.54614	462.36526	109.03047	1631.93433	566.72839	-162.50458	1630.50952	614.27832	-83.96506	1261.9458	267.37311	-38.92972	1254.15613	442.16052	-196.81677	1289.97363	657.06366	-89.42194	793.05017	643.82819	-138.48389	433.52267	616.96991	10.88583	258.56012	582.55591	-212.51163	428.6293	234.4783	-30.83009	828.55975	228.6925	-113.42854	438.62631	232.88002	22.93031	269.81763	293.93057	-184.85081	433.53705	470.18756	-19.05389	2035.27625	431.70187	-128.96045	1274.05188
531	2.208	475.62433	-42.508	2079.7168	465.98407	74.32935	2046.88501	474.62018	-112.49249	2013.33594	648.79193	-25.32242	1760.53613	642.50214	87.79393	1459.12573	447.69659	158.0592	1617.7251	292.1532	-32.50496	1790.28479	249.84091	94.79927	1483.28076	462.46332	109.29274	1626.77856	566.58765	-162.3149	1625.50366	614.30212	-84.0555	1256.77759	267.45035	-38.19052	1248.9823	441.93411	-196.47874	1284.82373	657.57092	-89.6382	788.02185	644.79541	-136.88657	428.22696	619.12201	13.6867	254.10306	583.05975	-210.55989	422.72556	234.34343	-30.76968	823.42383	227.71095	-112.4115	433.42523	231.43394	24.72696	265.1315	292.93567	-183.79321	427.85013	470.30212	-19.08159	2030.11035	431.59079	-128.62192	1268.89551
